<svg width="23" height="23" viewBox="0 0 23 23" fill="none" xmlns="http://www.w3.org/2000/svg">
<path d="M19.6367 3.36331C15.1523 -1.1211 7.85327 -1.1211 3.36886 3.36331C1.1966 5.53643 0 8.42507 0 11.4972C0 14.5694 1.1966 17.458 3.36886 19.6303C5.61152 21.8729 8.55716 22.9938 11.5028 22.9938C14.4484 22.9938 17.3941 21.8729 19.6367 19.6303C24.1211 15.1459 24.1211 7.84858 19.6367 3.36331ZM18.3768 18.3704C14.5865 22.1607 8.41903 22.1607 4.62871 18.3704C2.79327 16.5349 1.78198 14.0936 1.78198 11.4972C1.78198 8.90084 2.79327 6.45949 4.62871 4.62316C8.41903 0.832837 14.5865 0.833735 18.3768 4.62316C22.1662 8.41348 22.1662 14.581 18.3768 18.3704Z" fill="black"/>
<path d="M15.3421 13.9597L12.8197 11.4408L15.3421 8.92201C15.6896 8.57454 15.6896 8.01054 15.343 7.66212C14.9947 7.31285 14.4307 7.31375 14.0823 7.66122L11.5581 10.1819L9.03393 7.66122C8.68556 7.31375 8.12156 7.31285 7.77319 7.66212C7.42571 8.01049 7.42571 8.57449 7.77409 8.92201L10.2965 11.4408L7.77409 13.9597C7.42571 14.3072 7.42571 14.8712 7.77319 15.2196C7.94695 15.3942 8.17592 15.4806 8.40403 15.4806C8.63215 15.4806 8.86022 15.3933 9.03398 15.2204L11.5582 12.6998L14.0823 15.2204C14.2561 15.3942 14.4842 15.4806 14.7123 15.4806C14.9404 15.4806 15.1694 15.3933 15.3431 15.2196C15.6905 14.8712 15.6905 14.3072 15.3421 13.9597Z" fill="black"/>
</svg>
