<svg width="51" height="51" viewBox="0 0 51 51" fill="none" xmlns="http://www.w3.org/2000/svg">
<path d="M47.1769 27.8006C48.0943 26.8719 48.6001 25.6366 48.6007 24.3219C48.6014 23.0071 48.097 21.7712 47.1806 20.8415C46.7138 20.368 46.1738 20.0119 45.5969 19.7725L47.5877 17.7608C48.5072 16.8325 49.0144 15.5967 49.0159 14.2807C49.0174 12.9648 48.5132 11.7277 47.5959 10.7972L47.5443 10.7449C46.8365 10.0269 45.9615 9.57789 45.0446 9.39796C45.1002 9.09895 45.1297 8.79279 45.13 8.48179C45.1315 7.16606 44.6271 5.92902 43.7099 4.99874L43.6467 4.93457C42.7308 4.0056 41.5133 3.49402 40.2182 3.49402C39.3438 3.49402 38.5051 3.72805 37.7705 4.16548C37.5312 3.50843 37.1536 2.90587 36.6513 2.39651L36.6096 2.35399C34.7193 0.436824 31.6433 0.436522 29.7528 2.35409L16.7961 15.4969L18.4055 8.75541C19.0413 6.09172 17.6065 3.37554 15.0679 2.43721C13.6393 1.90911 12.054 2.02939 10.7185 2.76674C9.38309 3.50409 8.42308 4.78939 8.0846 6.29311L7.86391 7.27396C6.80835 11.9641 5.06352 16.6773 2.67789 21.2821C0.890248 24.7326 0.209418 28.7679 0.760836 32.6448C1.33132 36.656 3.13008 40.2951 5.96275 43.1684C9.4399 46.6955 14.0614 48.6374 18.9784 48.6372H18.9909C23.9123 48.634 28.5367 46.6855 32.0121 43.1508L35.7215 39.3781L47.1769 27.8006ZM29.9024 41.0165C26.9896 43.979 23.1137 45.612 18.989 45.6148H18.9785C14.8576 45.6148 10.9838 43.9873 8.0696 41.0313C5.69529 38.623 4.18773 35.5736 3.70981 32.2133C3.24738 28.962 3.81767 25.5791 5.31549 22.688C7.82111 17.8516 9.65592 12.8919 10.7688 7.94653L10.9895 6.96578C11.1398 6.29754 11.5495 5.74909 12.1431 5.42137C12.7366 5.09364 13.4132 5.04247 14.048 5.277C15.1598 5.68794 15.7883 6.87753 15.5098 8.04415L12.6524 20.0129C12.3134 21.2466 13.8803 22.6209 15.1537 21.4371L31.8597 4.49129C32.5884 3.75193 33.7742 3.75213 34.5017 4.48988L34.5434 4.53229C34.8964 4.89044 35.0907 5.36636 35.0907 5.8728C35.0907 6.37925 34.8963 6.85526 34.5434 7.21341C31.8242 9.9716 26.9468 14.919 24.2776 17.6265C23.6958 18.2165 23.6958 19.1734 24.2776 19.7636C24.8594 20.3537 25.8028 20.3537 26.3845 19.7636C28.0337 18.0907 37.5085 8.47997 38.8968 7.07176C39.2498 6.71362 39.7191 6.51646 40.2184 6.51646C40.7176 6.51646 41.1869 6.71362 41.54 7.07176L41.6033 7.13594C41.9568 7.49459 42.1512 7.97141 42.1507 8.47856C42.1501 8.98571 41.9547 9.46213 41.6001 9.82018C37.8646 13.5942 32.7559 18.7539 29.058 22.4921C28.475 23.0812 28.4732 24.038 29.0539 24.6293C29.345 24.9257 29.727 25.074 30.1093 25.074C30.4896 25.074 30.87 24.9272 31.1606 24.6336C33.6464 22.1219 40.4189 15.2787 42.7976 12.8789C43.5263 12.1434 44.7106 12.1448 45.4376 12.882L45.489 12.9343C45.8427 13.293 46.0371 13.7699 46.0365 14.2771C46.0359 14.7844 45.8403 15.2608 45.4854 15.619C41.862 19.28 36.1235 25.0772 32.5319 28.7092C31.949 29.2983 31.9472 30.2551 32.5279 30.8464C32.819 31.1427 33.2011 31.291 33.5833 31.291C33.9636 31.291 34.3441 31.1441 34.6347 30.8504L41.4661 23.947L42.4374 22.9718C43.1661 22.2402 44.3488 22.2435 45.0738 22.9786C45.427 23.337 45.6214 23.8134 45.6211 24.3202C45.6209 24.8269 45.4259 25.3032 45.0731 25.6604L33.6152 37.2404L29.9024 41.0165Z" fill="black"/>
<path d="M45.3792 38.2899C45.703 37.5227 45.3523 36.6343 44.596 36.306C43.8396 35.9774 42.9639 36.3332 42.6401 37.1005C42.1404 38.2846 41.427 39.3516 40.5201 40.2716C39.412 41.3955 38.1027 42.2183 36.6284 42.7171C35.8478 42.9811 35.4261 43.837 35.6864 44.6288C35.8946 45.2619 36.4758 45.6622 37.0995 45.6622C37.2558 45.6622 37.4147 45.6372 37.5711 45.5843C39.488 44.9357 41.1891 43.8674 42.627 42.4087C43.8034 41.2152 44.7295 39.8294 45.3792 38.2899Z" fill="black"/>
<path d="M49.3166 39.1226C48.5603 38.7938 47.6845 39.1489 47.3603 39.9161C46.6642 41.5632 45.6716 43.0471 44.4101 44.3267C42.943 45.8149 41.2172 46.9266 39.2809 47.6307C38.5064 47.9124 38.1036 48.7776 38.3813 49.5633C38.5994 50.1804 39.1725 50.5648 39.7838 50.5648C39.9506 50.5648 40.1203 50.5362 40.2865 50.4757C42.6402 49.6198 44.7364 48.2699 46.517 46.4638C48.0477 44.9112 49.2527 43.1089 50.0988 41.1069C50.423 40.3398 50.0728 39.4515 49.3166 39.1226Z" fill="black"/>
</svg>
