<svg width="17" height="17" viewBox="0 0 17 17" fill="none" xmlns="http://www.w3.org/2000/svg">
<g clip-path="url(#clip0)">
<path d="M15.03 7.46744C14.002 6.90428 12.6488 6.125 11.2165 5.29947C8.48378 3.72525 5.38644 1.94075 3.20187 0.875656C3.00297 0.779312 2.79269 0.730469 2.57719 0.730469C1.78359 0.730469 1.13806 1.37175 1.13806 2.1595L1.13872 8.73047L1.13806 15.3008C1.13806 16.0892 1.78356 16.7305 2.57719 16.7305C2.79366 16.7305 3.00394 16.681 3.20284 16.584C5.38872 15.5182 8.48962 13.7318 11.2253 12.1556C12.6543 11.332 14.004 10.5547 15.03 9.99219C15.515 9.72656 15.8047 9.25456 15.8047 8.72981C15.8047 8.20509 15.515 7.73306 15.03 7.46744Z" fill="black"/>
</g>
<defs>
<clipPath id="clip0">
<rect width="16" height="16" fill="white" transform="translate(0.471436 0.730469)"/>
</clipPath>
</defs>
</svg>
