<svg width="51" height="50" viewBox="0 0 51 50" fill="none" xmlns="http://www.w3.org/2000/svg">
<path d="M25.991 0C12.2059 0 0.990967 11.2149 0.990967 25C0.990967 38.7851 12.2059 50 25.991 50C39.776 50 50.991 38.7851 50.991 25C50.991 11.2149 39.776 0 25.991 0ZM25.991 47.0703C13.8213 47.0703 3.92065 37.1696 3.92065 25C3.92065 12.8304 13.8213 2.92969 25.991 2.92969C38.1606 2.92969 48.0613 12.8304 48.0613 25C48.0613 37.1696 38.1606 47.0703 25.991 47.0703Z" fill="#28DF99"/>
<path d="M25.991 28.0508C21.8953 28.0508 18.0434 30.2334 15.9385 33.7468C15.5227 34.4407 15.7482 35.3404 16.4422 35.7561C17.1362 36.1722 18.0357 35.9464 18.4516 35.2524C20.0303 32.6175 22.9192 30.9805 25.991 30.9805C29.0715 30.9805 31.9647 32.6244 33.5414 35.2708C33.8155 35.7308 34.302 35.9861 34.8012 35.9861C35.0562 35.9861 35.3146 35.9194 35.5495 35.7795C36.2445 35.3653 36.4722 34.4663 36.0581 33.7713C33.9559 30.2427 30.0983 28.0508 25.991 28.0508Z" fill="#28DF99"/>
<path d="M22.7949 19.8939C23.0569 19.1285 22.6488 18.2956 21.8835 18.0336C21.118 17.7716 20.2852 18.1797 20.0232 18.945C19.5434 20.347 18.2253 21.289 16.7434 21.289C15.2605 21.289 13.942 20.3461 13.4627 18.9429C13.2012 18.1775 12.3688 17.7687 11.603 18.0302C10.8374 18.2917 10.4289 19.1243 10.6903 19.8899C11.5747 22.479 14.0072 24.2187 16.7434 24.2187C19.4775 24.2187 21.9095 22.4807 22.7949 19.8939Z" fill="#28DF99"/>
<path d="M40.3878 18.0336C39.6228 17.7718 38.7897 18.1797 38.5275 18.945C38.0475 20.347 36.7294 21.289 35.2476 21.289C33.7646 21.289 32.4461 20.3461 31.9669 18.9429C31.7053 18.1775 30.8731 17.7687 30.1072 18.0302C29.3416 18.2917 28.9331 19.1243 29.1945 19.8899C30.0789 22.479 32.5115 24.2187 35.2476 24.2187C37.9817 24.2187 40.4136 22.4808 41.2993 19.8941C41.5613 19.1285 41.1533 18.2957 40.3878 18.0336Z" fill="#28DF99"/>
</svg>
