<svg width="48" height="48" viewBox="0 0 48 48" fill="none" xmlns="http://www.w3.org/2000/svg">
<path d="M35.1562 20.625C34.1207 20.625 33.2812 19.7856 33.2812 18.75C33.2812 18.2331 32.8607 17.8125 32.3438 17.8125C31.8268 17.8125 31.4062 18.2331 31.4062 18.75C31.4062 19.7856 30.5668 20.625 29.5312 20.625C28.4957 20.625 27.6562 19.7856 27.6562 18.75C27.6562 16.1653 29.7591 14.0625 32.3438 14.0625C34.9284 14.0625 37.0312 16.1653 37.0312 18.75C37.0312 19.7856 36.1918 20.625 35.1562 20.625ZM20.4375 18.75C20.4375 16.1653 18.3347 14.0625 15.75 14.0625C13.1653 14.0625 11.0625 16.1653 11.0625 18.75C11.0625 19.7856 11.9019 20.625 12.9375 20.625C13.9731 20.625 14.8125 19.7856 14.8125 18.75C14.8125 18.2331 15.2331 17.8125 15.75 17.8125C16.2669 17.8125 16.6875 18.2331 16.6875 18.75C16.6875 19.7856 17.5269 20.625 18.5625 20.625C19.5981 20.625 20.4375 19.7856 20.4375 18.75ZM36.4182 44.5413C37.304 44.0048 37.587 42.8518 37.0506 41.9662C36.514 41.0804 35.361 40.7973 34.4754 41.3338C31.3259 43.2416 27.7036 44.25 24 44.25C12.8341 44.25 3.75 35.1659 3.75 24C3.75 12.8341 12.8341 3.75 24 3.75C35.1659 3.75 44.25 12.8341 44.25 24C44.25 27.9927 43.0627 31.8791 40.8163 35.2392C40.2408 36.1001 40.4721 37.2645 41.333 37.84C42.1939 38.4157 43.3583 38.1842 43.9338 37.3234C46.5938 33.3444 48 28.7373 48 24C48 17.5894 45.5035 11.5625 40.9706 7.02938C36.4375 2.49647 30.4106 0 24 0C17.5894 0 11.5625 2.49647 7.02938 7.02938C2.49647 11.5625 0 17.5894 0 24C0 30.4106 2.49647 36.4375 7.02938 40.9706C11.5625 45.5035 17.5894 48 24 48C28.3887 48 32.6828 46.804 36.4182 44.5413ZM32.0625 27.2812C31.452 27.2812 30.9112 27.5744 30.5689 28.0261C30.5689 28.0261 28.1297 30.6562 24 30.6562C19.8703 30.6562 17.4311 28.0261 17.4311 28.0261C17.0888 27.5744 16.548 27.2812 15.9375 27.2812C14.9019 27.2812 14.0625 28.1207 14.0625 29.1562C14.0625 29.6898 14.2864 30.1701 14.6441 30.5115C14.9832 30.8876 18.3097 34.4062 24 34.4062C29.6903 34.4062 33.0168 30.8876 33.3559 30.5115C33.7136 30.1701 33.9375 29.6898 33.9375 29.1562C33.9375 28.1207 33.0981 27.2812 32.0625 27.2812Z" fill="white"/>
</svg>
