<svg width="16" height="18" viewBox="0 0 16 18" fill="none" xmlns="http://www.w3.org/2000/svg">
<path d="M8.26453 8.82957C9.45573 8.82957 10.4872 8.42608 11.33 7.62998C12.1728 6.83402 12.6 5.86011 12.6 4.73497C12.6 3.61022 12.1728 2.63618 11.3299 1.83995C10.4869 1.04412 9.45559 0.640625 8.26453 0.640625C7.0732 0.640625 6.042 1.04412 5.19921 1.84008C4.35642 2.63605 3.92905 3.61009 3.92905 4.73497C3.92905 5.86011 4.35642 6.83415 5.19935 7.63011C6.04227 8.42595 7.07362 8.82957 8.26453 8.82957Z" fill="#28DF99" />
<path d="M15.8505 13.713C15.8261 13.3818 15.777 13.0204 15.7046 12.6388C15.6316 12.2544 15.5375 11.891 15.4249 11.5588C15.3086 11.2155 15.1504 10.8765 14.9548 10.5516C14.7518 10.2144 14.5134 9.92074 14.2459 9.67911C13.9662 9.42633 13.6237 9.22309 13.2276 9.07484C12.8329 8.92738 12.3955 8.85267 11.9277 8.85267C11.7439 8.85267 11.5662 8.92387 11.223 9.13489C11.0118 9.26498 10.7647 9.41543 10.489 9.58184C10.2532 9.72373 9.93377 9.85667 9.53922 9.97703C9.15429 10.0947 8.76345 10.1543 8.37769 10.1543C7.99194 10.1543 7.60123 10.0947 7.21589 9.97703C6.82175 9.8568 6.50233 9.72386 6.26681 9.58197C5.99366 9.41712 5.74647 9.26667 5.5321 9.13476C5.18932 8.92374 5.01148 8.85254 4.82774 8.85254C4.35972 8.85254 3.92246 8.92738 3.52792 9.07497C3.13213 9.22296 2.7895 9.4262 2.50948 9.67924C2.2421 9.921 2.00356 10.2145 1.80087 10.5516C1.60545 10.8765 1.44724 11.2154 1.33079 11.559C1.21832 11.8911 1.12424 12.2544 1.05119 12.6388C0.978813 13.0199 0.929649 13.3814 0.905342 13.7134C0.881447 14.0387 0.869362 14.3763 0.869362 14.7173C0.869362 15.6047 1.16805 16.3231 1.75706 16.8529C2.33878 17.3757 3.10851 17.641 4.04455 17.641H12.7117C13.6477 17.641 14.4172 17.3759 14.999 16.8529C15.5882 16.3235 15.8868 15.6049 15.8868 14.7171C15.8867 14.3746 15.8745 14.0367 15.8505 13.713Z" fill="#28DF99" />
</svg>
